<svg width="855" height="714" viewBox="0 0 855 714" fill="none" xmlns="http://www.w3.org/2000/svg">
<path d="M801.868 81.2579C794.187 143.638 782.719 211.605 778.161 237.5L427.5 252L428 0C669.841 14.8968 778.301 60.3093 801.868 81.2579Z" fill="#DF6D03"/>
<path d="M53.0002 81.2579C60.6813 143.638 72.442 213.105 77.0002 239L428 252V0C186.16 14.8968 76.5674 60.3093 53.0002 81.2579Z" fill="#DF6D03"/>
<path d="M778.174 237.5C752.337 520.307 533.482 672.669 427.284 713.5V220.916L609.712 199.676C737.731 216.435 775.361 231.875 778.174 237.5Z" fill="black"/>
<path d="M76.6847 237.209C102.521 520.016 321.377 672.379 427.575 713.209V220.625L245.147 199.385C117.127 216.144 79.4973 231.584 76.6847 237.209Z" fill="black"/>
<path d="M602.5 200.5V146C668.837 160.664 752.047 198.049 782.5 212.5L778 238.5C731.447 219.879 639.548 205.252 602.5 200.5Z" fill="white"/>
<path d="M252 200V145.5C185.663 160.164 102.453 197.549 72 212L76.5 238C123.053 219.379 214.952 204.752 252 200Z" fill="white"/>
<path d="M455.633 630.129C444.134 636.505 434.056 641.482 426 645L425.501 207.75C424.382 207.601 424.423 207.411 425.501 207.241H455.633C481.004 205.844 484.05 189.978 482.401 182.219V30.0501L568.232 79.8032L603.438 128.101V256.994L530.408 358.246C526.917 412.479 536.763 501.146 542 538L546.411 536.6C589.472 511.695 628.945 477.731 643.298 463.862C588.421 544.082 507.537 601.352 455.633 630.129Z" fill="white"/>
<path d="M395.861 629.873C407.581 636.372 417.837 641.435 426.001 645L426.001 207.75C427.118 207.601 427.078 207.411 426.001 207.241H395.861C370.49 205.844 367.445 189.978 369.093 182.219V30.0501L283.262 79.8032L248.057 128.101V256.994L321.086 358.246C324.577 412.479 314.738 501.146 309.501 538L305.084 536.6C262.022 511.695 222.55 477.731 208.196 463.862C262.911 543.844 343.817 601.013 395.861 629.873Z" fill="white"/>
<path d="M209 465C260.673 549.726 384.62 630 426 645.5V567.5L366.608 530.699L349.732 354.672C320.87 326.508 284.365 276.406 269.72 254.875L247.5 129.5V257.5L321 359L313.945 550.484C255.289 517.432 219.086 479.645 209 465Z" fill="#DF6D03"/>
<path d="M643 465C591.327 549.726 467.38 630 426 645.5V567.5L485.392 530.699L502.268 354.672C531.13 326.508 567.635 276.406 582.28 254.875L604.5 129.5V257.5L531 359L538.055 550.484C596.711 517.432 632.914 479.645 643 465Z" fill="#DF6D03"/>
</svg>
